<svg width="582" height="582" viewBox="0 0 582 582" fill="none" xmlns="http://www.w3.org/2000/svg">
<g clip-path="url(#clip0_2859_5812)">
<rect x="25" y="171.238" width="82" height="331.763" fill="white"/>
<path d="M48.6745 485.244L43.5967 485.186L43.9541 449.733L49.0319 449.791L48.8821 464.655L91.0739 465.136L91.0162 470.86L48.8244 470.38L48.6745 485.244ZM91.4111 431.688L44.1415 431.149L44.3025 415.177C44.3397 411.484 45.0011 408.46 46.2868 406.105C47.557 403.749 49.2904 402.015 51.4869 400.901C53.6833 399.787 56.1741 399.246 58.9592 399.278C61.7443 399.31 64.2082 399.907 66.3509 401.07C68.4937 402.234 70.1687 403.999 71.3759 406.368C72.5678 408.736 73.1453 411.751 73.1083 415.413L72.978 428.339L67.8079 428.28L67.9364 415.539C67.9618 413.015 67.613 410.98 66.8899 409.433C66.167 407.87 65.132 406.735 63.7849 406.027C62.4225 405.304 60.7951 404.931 58.9024 404.91C57.0098 404.888 55.3521 405.223 53.9293 405.915C52.5066 406.607 51.4027 407.725 50.6176 409.27C49.8172 410.816 49.4041 412.865 49.3784 415.42L49.277 425.483L91.4688 425.964L91.4111 431.688ZM70.401 409.196L91.7527 397.805L91.6857 404.452L70.3358 415.659L70.401 409.196ZM44.6019 385.474L44.668 378.919L66.8655 366.06L66.871 365.506L44.9379 352.145L45.0039 345.59L72.6212 362.986L92.1014 363.209L92.0437 368.933L72.5635 368.711L44.6019 385.474ZM92.4307 330.545L88.2761 330.498L50.4957 304.583L50.236 330.341L45.1582 330.283L45.4868 297.693L49.6413 297.74L87.4218 323.655L87.6814 297.897L92.7592 297.954L92.4307 330.545ZM92.9543 278.603L45.6846 278.064L45.9722 249.536L51.05 249.594L50.8201 272.398L66.7921 272.58L67.0071 251.253L72.0849 251.311L71.8699 272.638L87.9342 272.821L88.1678 249.648L93.2456 249.705L92.9543 278.603ZM46.5524 191.985L93.822 192.524L93.7662 198.064L56.3925 223.399L56.3878 223.861L93.5019 224.284L93.4442 230.008L46.1745 229.469L46.2304 223.93L83.6973 198.503L83.702 198.041L46.4956 197.617L46.5524 191.985Z" fill="black"/>
<path d="M52.072 75.0125C52.1655 75.0122 52.2589 75.0119 52.3551 75.0117C52.6681 75.0109 52.9811 75.0114 53.2941 75.012C53.5208 75.0117 53.7475 75.0114 53.9741 75.0109C54.467 75.0102 54.9598 75.0101 55.4526 75.0104C56.1854 75.0108 56.9182 75.0103 57.6511 75.0096C59.0359 75.0082 60.4207 75.0081 61.8055 75.0083C62.8746 75.0085 63.9436 75.0083 65.0126 75.0079C65.1662 75.0079 65.3198 75.0078 65.4733 75.0078C65.7048 75.0077 65.9362 75.0076 66.1676 75.0075C68.3188 75.0068 70.4701 75.0064 72.6213 75.0068C72.7429 75.0068 72.7429 75.0068 72.867 75.0068C73.278 75.0069 73.689 75.007 74.1 75.007C74.1816 75.0071 74.2633 75.0071 74.3474 75.0071C74.5124 75.0071 74.6775 75.0071 74.8426 75.0072C77.4126 75.0077 79.9827 75.007 82.5527 75.0053C85.4396 75.0035 88.3265 75.0026 91.2134 75.0029C91.521 75.003 91.8286 75.003 92.1362 75.003C92.212 75.003 92.2877 75.003 92.3657 75.003C93.5105 75.0031 94.6552 75.0026 95.7999 75.0016C97.101 75.0006 98.4021 75.0004 99.7031 75.0015C100.432 75.0021 101.16 75.002 101.889 75.0008C102.432 75 102.975 75.0005 103.518 75.0016C103.738 75.0019 103.959 75.0017 104.179 75.001C104.477 75.0001 104.776 75.0008 105.074 75.0019C105.161 75.0013 105.247 75.0007 105.337 75C106.1 75.0061 106.1 75.0061 106.426 75.2984C106.697 75.7019 106.729 76.0661 106.724 76.5385C106.724 76.6092 106.725 76.6798 106.725 76.7527C106.726 76.99 106.725 77.2273 106.724 77.4646C106.724 77.6364 106.724 77.8081 106.724 77.9799C106.725 78.4523 106.724 78.9247 106.723 79.3972C106.722 79.9067 106.723 80.4163 106.723 80.9258C106.724 81.9253 106.723 82.9248 106.721 83.9242C106.72 85.0323 106.72 86.1403 106.72 87.2483C106.719 89.3945 106.718 91.5406 106.716 93.6867C106.714 95.7037 106.713 97.7207 106.712 99.7378C106.712 99.8306 106.712 99.8306 106.712 99.9252C106.712 100.175 106.712 100.424 106.712 100.674C106.712 100.798 106.712 100.922 106.712 101.047C106.712 101.171 106.712 101.295 106.712 101.419C106.712 103.412 106.711 105.404 106.71 107.396C106.709 108.092 106.709 108.787 106.709 109.482C106.708 110.589 106.707 111.695 106.706 112.802C106.706 113.306 106.705 113.811 106.705 114.315C106.705 116.497 106.687 118.677 106.634 120.859C106.594 122.506 106.595 124.152 106.603 125.8C106.605 126.301 106.606 126.803 106.607 127.305C106.608 127.499 106.609 127.694 106.61 127.889C106.612 128.454 106.601 129.008 106.535 129.569C106.5 129.888 106.495 130.208 106.489 130.529C106.486 130.669 106.482 130.808 106.479 130.948C106.474 131.164 106.47 131.38 106.465 131.597C106.461 131.808 106.456 132.02 106.45 132.231C106.449 132.296 106.448 132.36 106.447 132.427C106.439 132.725 106.411 132.99 106.337 133.278C106.323 133.494 106.314 133.707 106.31 133.923C106.308 133.987 106.307 134.05 106.306 134.116C106.266 136.383 106.425 138.433 107.841 140.305C107.879 140.356 107.917 140.406 107.956 140.458C108.233 140.819 108.523 141.159 108.848 141.478C109.123 141.754 109.374 142.046 109.628 142.342C110.052 142.835 110.489 143.298 110.962 143.744C111.116 143.907 111.116 143.907 111.116 144.083C111.163 144.101 111.21 144.119 111.259 144.138C111.626 144.349 111.916 144.64 112.128 145.005C112.291 145.264 112.482 145.414 112.718 145.606C113.011 145.862 113.253 146.16 113.505 146.455C113.877 146.877 114.25 147.293 114.655 147.684C114.759 147.787 114.862 147.889 114.965 147.992C115.013 148.04 115.062 148.088 115.112 148.137C115.165 148.191 115.219 148.244 115.275 148.299C115.342 148.366 115.409 148.432 115.478 148.501C115.709 148.731 115.94 148.961 116.171 149.192C116.3 149.321 116.429 149.449 116.558 149.578C116.646 149.666 116.735 149.755 116.823 149.843C116.952 149.972 117.081 150.101 117.21 150.23C117.287 150.306 117.363 150.382 117.442 150.461C117.654 150.662 117.877 150.841 118.106 151.023C118.163 151.093 118.22 151.164 118.278 151.237C118.458 151.475 118.458 151.475 118.72 151.676C118.997 151.906 119.204 152.153 119.434 152.428C119.503 152.483 119.572 152.537 119.644 152.593C119.902 152.8 120.102 153.027 120.317 153.278C120.518 153.509 120.728 153.731 120.938 153.955C121.769 154.863 121.769 154.863 122 155.327C121.971 155.528 121.971 155.528 121.912 155.679C121.853 155.679 121.795 155.679 121.735 155.679C121.705 155.766 121.676 155.853 121.646 155.942C106.492 155.955 106.492 155.955 94.1787 155.961C94.0419 155.961 93.9051 155.961 93.7683 155.961C90.8973 155.962 88.0263 155.963 85.1553 155.964C83.7131 155.965 82.271 155.966 80.8288 155.966C80.6113 155.966 80.3937 155.966 80.1762 155.966C76.8254 155.968 73.4746 155.969 70.1239 155.972C70.0158 155.972 70.0158 155.972 69.9055 155.972C68.7435 155.973 67.5815 155.974 66.4195 155.975C63.0734 155.978 59.7273 155.981 56.3812 155.982C56.3125 155.982 56.2437 155.982 56.1728 155.982C54.6631 155.983 53.1534 155.983 51.6437 155.983C51.0363 155.984 50.4289 155.984 49.8215 155.984C49.755 155.984 49.6885 155.984 49.6201 155.984C47.4765 155.984 45.3329 155.986 43.1893 155.989C41.0308 155.991 38.8723 155.993 36.7138 155.992C35.3738 155.992 34.0338 155.992 32.6938 155.995C31.84 155.997 30.9863 155.997 30.1325 155.996C29.6452 155.995 29.1579 155.995 28.6706 155.997C28.2279 155.999 27.7853 155.999 27.3426 155.997C27.1828 155.996 27.0231 155.997 26.8633 155.998C26.6474 156 26.4316 155.998 26.2156 155.997C26.1533 155.998 26.0911 155.999 26.027 156C25.6863 155.994 25.5529 155.949 25.2868 155.73C24.9643 155.334 25.0007 155.006 25.0017 154.514C25.0016 154.431 25.0015 154.347 25.0014 154.261C25.0012 153.985 25.0017 153.709 25.0024 153.433C25.0025 153.339 25.0026 153.245 25.0027 153.149C25.0046 151.792 25.0198 150.436 25.0522 149.079C25.0539 149.003 25.0557 148.926 25.0574 148.847C25.0625 148.632 25.0681 148.416 25.074 148.2C25.0762 148.106 25.0762 148.106 25.0785 148.01C25.0862 147.754 25.1021 147.508 25.1468 147.256C25.1885 146.994 25.2006 146.753 25.1991 146.488C25.1988 146.39 25.1985 146.292 25.1982 146.191C25.1975 146.083 25.1968 145.975 25.196 145.863C25.1956 145.743 25.1952 145.624 25.1949 145.504C25.1941 145.239 25.1932 144.973 25.1921 144.708C25.189 143.945 25.1884 143.182 25.188 142.419C25.188 142.333 25.188 142.246 25.1879 142.157C25.1873 139.398 25.2066 136.639 25.2249 133.88C25.2283 133.363 25.2314 132.846 25.2345 132.329C25.2382 131.691 25.2423 131.052 25.2468 130.413C25.2492 130.081 25.2514 129.749 25.2532 129.417C25.2553 129.052 25.258 128.688 25.2608 128.323C25.2616 128.162 25.2616 128.162 25.2623 127.997C25.2632 127.898 25.2641 127.8 25.265 127.699C25.2655 127.613 25.2661 127.528 25.2667 127.44C25.279 127.216 25.279 127.216 25.3233 127.055C25.3744 126.835 25.3783 126.637 25.378 126.412C25.3781 126.319 25.3782 126.227 25.3783 126.132C25.378 126.031 25.3776 125.93 25.3773 125.826C25.3773 125.719 25.3773 125.611 25.3773 125.5C25.3772 125.264 25.377 125.028 25.3765 124.792C25.3757 124.408 25.3755 124.023 25.3754 123.639C25.3753 123.154 25.375 122.668 25.3745 122.183C25.3735 121.229 25.3739 120.274 25.3748 119.32C25.3749 119.17 25.3751 119.02 25.3752 118.87C25.3755 118.566 25.3757 118.262 25.376 117.958C25.3767 117.176 25.3774 116.394 25.3779 115.612C25.378 115.534 25.378 115.455 25.3781 115.375C25.3788 114.103 25.3777 112.832 25.3759 111.56C25.3742 110.255 25.3748 108.95 25.3775 107.644C25.379 106.839 25.3787 106.034 25.376 105.229C25.3744 104.677 25.3749 104.125 25.3773 103.573C25.3786 103.255 25.3789 102.937 25.3764 102.618C25.3738 102.273 25.376 101.928 25.3787 101.583C25.3772 101.482 25.3756 101.382 25.3741 101.278C25.3818 100.794 25.4086 100.498 25.7554 100.141C26.0361 99.8994 26.228 99.8188 26.6063 99.8078C26.6758 99.8037 26.7452 99.7997 26.8168 99.7955C27.0815 99.7804 27.3462 99.7703 27.6112 99.7608C27.7122 99.757 27.8133 99.7532 27.9174 99.7493C28.2528 99.737 28.5882 99.7256 28.9237 99.7144C29.0391 99.7105 29.1546 99.7067 29.2735 99.7027C31.1502 99.6407 33.0263 99.6127 34.9039 99.6104C35.0937 99.6101 35.2835 99.6095 35.4733 99.6088C39.1782 99.5964 39.1782 99.5964 40.234 99.9835C40.3646 100.005 40.4955 100.025 40.6267 100.044C41.0425 100.129 41.2496 100.326 41.5251 100.637C41.6443 100.785 41.6443 100.785 41.8268 100.862C42.1001 101.594 42.1329 102.341 42.1421 103.113C42.1461 103.909 42.1461 103.909 42.269 104.693C42.431 105.408 42.3932 106.156 42.402 106.885C42.4162 108.141 42.4162 108.141 42.532 109.391C42.6116 110 42.6505 110.604 42.6725 111.217C42.6762 111.32 42.6799 111.422 42.6837 111.528C42.726 112.818 42.7247 114.109 42.7236 115.4C42.7234 115.762 42.7236 116.124 42.7238 116.487C42.7239 117.096 42.7237 117.706 42.7233 118.315C42.7229 118.931 42.7229 119.547 42.7233 120.163C42.7279 126.934 42.7279 126.934 42.6233 130.291C42.6213 130.355 42.6193 130.419 42.6172 130.486C42.5882 131.404 42.5539 132.323 42.517 133.241C42.4444 135.071 42.4463 136.889 42.4463 138.724C57.8066 138.724 73.1669 138.724 88.9927 138.724C88.9892 127.129 88.9892 127.129 88.9848 115.533C88.9841 112.814 88.9841 112.814 88.9841 111.659C88.9841 111.569 88.9841 111.479 88.9841 111.386C88.9841 111.295 88.9841 111.203 88.9841 111.109C88.9841 111.014 88.9841 110.919 88.9841 110.822C88.984 102.597 88.984 102.597 89.0128 98.8635C89.0137 98.7512 89.0145 98.6388 89.0154 98.523C89.0312 96.55 89.0564 94.5772 89.0812 92.6043C88.9696 92.6043 88.9696 92.6044 88.8557 92.6044C84.4426 92.6064 80.0296 92.6079 75.6166 92.6088C75.0865 92.6089 74.5563 92.609 74.0262 92.6091C73.8679 92.6092 73.8679 92.6092 73.7064 92.6092C71.9986 92.6096 70.2908 92.6103 68.5829 92.6111C66.83 92.6119 65.077 92.6124 63.3241 92.6126C62.2428 92.6127 61.1615 92.6131 60.0802 92.6138C59.3383 92.6142 58.5964 92.6144 57.8545 92.6143C57.4267 92.6142 56.999 92.6143 56.5712 92.6148C56.1789 92.6152 55.7866 92.6152 55.3943 92.6149C55.253 92.6149 55.1118 92.615 54.9705 92.6153C53.8588 92.6173 52.748 92.5902 51.6494 92.4066C51.5877 92.3981 51.526 92.3897 51.4624 92.3809C50.9996 92.3039 50.7355 92.1457 50.4105 91.8137C50.1629 91.4086 50.1118 91.1074 50.1119 90.6365C50.1116 90.5729 50.1112 90.5093 50.1108 90.4438C50.11 90.2318 50.111 90.0198 50.1121 89.8078C50.1119 89.6554 50.1115 89.5029 50.1111 89.3505C50.1103 88.9373 50.1111 88.524 50.1123 88.1107C50.1133 87.678 50.1129 87.2453 50.1127 86.8125C50.1127 86.0859 50.1136 85.3592 50.1153 84.6326C50.1172 83.7927 50.1175 82.9529 50.1169 82.1131C50.1164 81.3048 50.1169 80.4966 50.1179 79.6883C50.1183 79.3445 50.1184 79.0007 50.1182 78.6569C50.118 78.2519 50.1188 77.847 50.1202 77.442C50.1205 77.2935 50.1206 77.145 50.1204 76.9965C50.1201 76.7936 50.1209 76.5907 50.122 76.3878C50.1221 76.2743 50.1223 76.1608 50.1225 76.0439C50.1639 75.4808 50.1639 75.4808 50.322 75.2106C50.8739 74.9939 51.4883 75.0099 52.072 75.0125Z" fill="white"/>
<rect x="25" y="75" width="17" height="17" fill="white"/>
<path d="M571 290C571 407.637 475.637 503 358 503C240.363 503 145 407.637 145 290C145 172.363 240.363 77 358 77C475.637 77 571 172.363 571 290ZM202.478 290C202.478 375.892 272.108 445.522 358 445.522C443.892 445.522 513.522 375.892 513.522 290C513.522 204.108 443.892 134.478 358 134.478C272.108 134.478 202.478 204.108 202.478 290Z" fill="white"/>
<path d="M1249.75 883.224C1211.36 1022.05 1067.7 1103.46 928.874 1065.07C790.052 1026.67 708.638 883.012 747.031 744.19C785.424 605.368 929.086 523.954 1067.91 562.347C1206.73 600.74 1288.14 744.402 1249.75 883.224ZM849.569 772.548C826.838 854.74 875.04 939.797 957.232 962.529C1039.42 985.26 1124.48 937.058 1147.21 854.866C1169.94 772.673 1121.74 687.616 1039.55 664.885C957.358 642.154 872.301 690.356 849.569 772.548Z" fill="white"/>
<path d="M348.5 503L466.5 404L572 502.446L348.5 503Z" fill="white"/>
</g>
<defs>
<clipPath id="clip0_2859_5812">
<rect width="582" height="582" fill="white"/>
</clipPath>
</defs>
</svg>
